<svg width="35" height="38" viewBox="0 0 35 38" fill="none" xmlns="http://www.w3.org/2000/svg">
<path d="M32.0833 2.85L29.1667 0L26.25 2.85L23.3333 0L20.4167 2.85L17.5 0L14.5833 2.85L11.6667 0L8.75 2.85L5.83333 0V26.6H0V32.3C0 35.454 2.60556 38 5.83333 38H29.1667C32.3944 38 35 35.454 35 32.3V0L32.0833 2.85ZM31.1111 32.3C31.1111 33.345 30.2361 34.2 29.1667 34.2C28.0972 34.2 27.2222 33.345 27.2222 32.3V26.6H9.72222V5.7H31.1111V32.3Z" fill="#EE4E34"/>
<path d="M23.3334 9.5H11.6667V13.3H23.3334V9.5Z" fill="#EE4E34"/>
<path d="M29.1667 9.5H25.2778V13.3H29.1667V9.5Z" fill="#EE4E34"/>
<path d="M23.3334 15.2H11.6667V19H23.3334V15.2Z" fill="#EE4E34"/>
<path d="M29.1667 15.2H25.2778V19H29.1667V15.2Z" fill="#EE4E34"/>
</svg>
