<svg width="25" height="29" viewBox="0 0 25 29" fill="none" xmlns="http://www.w3.org/2000/svg">
<path d="M16.1458 16.9167H15.3229L15.0312 16.5904C16.0521 15.2129 16.6667 13.4246 16.6667 11.4792C16.6667 7.14125 13.6354 3.625 9.89583 3.625C6.15625 3.625 3.125 7.14125 3.125 11.4792C3.125 15.8171 6.15625 19.3333 9.89583 19.3333C11.5729 19.3333 13.1146 18.6204 14.3021 17.4362L14.5833 17.7746V18.7292L19.7917 24.7587L21.3437 22.9583L16.1458 16.9167ZM9.89583 16.9167C7.30208 16.9167 5.20833 14.4879 5.20833 11.4792C5.20833 8.47042 7.30208 6.04167 9.89583 6.04167C12.4896 6.04167 14.5833 8.47042 14.5833 11.4792C14.5833 14.4879 12.4896 16.9167 9.89583 16.9167Z" fill="#EE4E34"/>
</svg>
