<svg width="39" height="23" viewBox="0 0 39 23" fill="none" xmlns="http://www.w3.org/2000/svg">
<path d="M26.5909 9.85714C29.5336 9.85714 31.8914 7.65571 31.8914 4.92857C31.8914 2.20143 29.5336 0 26.5909 0C23.6482 0 21.2727 2.20143 21.2727 4.92857C21.2727 7.65571 23.6482 9.85714 26.5909 9.85714ZM12.4091 9.85714C15.3518 9.85714 17.7095 7.65571 17.7095 4.92857C17.7095 2.20143 15.3518 0 12.4091 0C9.46636 0 7.09091 2.20143 7.09091 4.92857C7.09091 7.65571 9.46636 9.85714 12.4091 9.85714ZM12.4091 13.1429C8.27864 13.1429 0 15.065 0 18.8929V23H24.8182V18.8929C24.8182 15.065 16.5395 13.1429 12.4091 13.1429ZM26.5909 13.1429C26.0768 13.1429 25.4918 13.1757 24.8714 13.225C26.9277 14.605 28.3636 16.4614 28.3636 18.8929V23H39V18.8929C39 15.065 30.7214 13.1429 26.5909 13.1429Z" fill="black"/>
</svg>
