<svg width="35" height="35" viewBox="0 0 35 35" fill="none" xmlns="http://www.w3.org/2000/svg">
<path d="M16.8941 9.78224C17.1637 9.31644 17.8362 9.31644 18.1058 9.78224L27.8731 26.6578C28.1432 27.1244 27.8064 27.7084 27.2672 27.7084H7.73261C7.19342 27.7084 6.85667 27.1244 7.12677 26.6578L16.8941 9.78224ZM18.1057 3.96313C17.8361 3.49743 17.1637 3.49743 16.8941 3.96313L2.06657 29.5744C1.79639 30.041 2.13313 30.6251 2.67237 30.6251H32.3275C32.8667 30.6251 33.2034 30.041 32.9333 29.5744L18.1057 3.96313ZM18.9583 24.0334C18.9583 23.6468 18.6449 23.3334 18.2583 23.3334H16.7416C16.355 23.3334 16.0416 23.6468 16.0416 24.0334V25.5501C16.0416 25.9367 16.355 26.2501 16.7416 26.2501H18.2583C18.6449 26.2501 18.9583 25.9367 18.9583 25.5501V24.0334ZM18.9583 15.2834C18.9583 14.8968 18.6449 14.5834 18.2583 14.5834H16.7416C16.355 14.5834 16.0416 14.8968 16.0416 15.2834V19.7167C16.0416 20.1033 16.355 20.4167 16.7416 20.4167H18.2583C18.6449 20.4167 18.9583 20.1033 18.9583 19.7167V15.2834Z" fill="#EE4E34"/>
</svg>
