<svg width="38" height="42" viewBox="0 0 38 42" fill="none" xmlns="http://www.w3.org/2000/svg">
<path d="M32.4583 5.25L32.205 5.3025L23.75 8.925L14.25 5.25L5.32 8.575C4.9875 8.6975 4.75 9.0125 4.75 9.415V35.875C4.75 36.365 5.09833 36.75 5.54167 36.75L5.795 36.6975L14.25 33.075L23.75 36.75L32.68 33.425C33.0125 33.3025 33.25 32.9875 33.25 32.585V6.125C33.25 5.635 32.9017 5.25 32.4583 5.25ZM15.8333 9.5725L22.1667 12.0225V32.4275L15.8333 29.9775V9.5725ZM7.91667 11.305L12.6667 9.5375V30.0125L7.91667 32.0425V11.305ZM30.0833 30.695L25.3333 32.4625V12.005L30.0833 9.975V30.695Z" fill="#EE4E34"/>
</svg>
