<svg width="80" height="80" viewBox="0 0 80 80" fill="none" xmlns="http://www.w3.org/2000/svg">
<path d="M0 76.2909C0 78.3273 1.63636 79.9636 3.67273 79.9636H50.9091C52.9455 79.9636 54.5818 78.3273 54.5818 76.2909V72.7273H0V76.2909ZM27.2727 29.0545C13.6364 29.0545 0 36.3636 0 50.9091H54.5455C54.5455 36.3636 40.9091 29.0545 27.2727 29.0545ZM9.52727 43.6364C13.5636 38 22.1455 36.3273 27.2727 36.3273C32.4 36.3273 40.9818 38 45.0182 43.6364H9.52727ZM0 58.1818H54.5455V65.4545H0V58.1818ZM61.8182 14.5455V0H54.5455V14.5455H36.3636L37.2 21.8182H71.9636L66.8727 72.7273H61.8182V80H68.0727C71.1273 80 73.6364 77.6364 74 74.6545L80 14.5455H61.8182Z" fill="black"/>
</svg>
